<?xml version="1.0" standalone="no"?>
<!DOCTYPE svg PUBLIC "-//W3C//DTD SVG 20010904//EN"
 "http://www.w3.org/TR/2001/REC-SVG-20010904/DTD/svg10.dtd">
<svg version="1.0" xmlns="http://www.w3.org/2000/svg"
 width="500.000000pt" height="500.000000pt" viewBox="0 0 500.000000 500.000000"
 preserveAspectRatio="xMidYMid meet">
<metadata>
Created by potrace 1.14, written by Peter Selinger 2001-2017
</metadata>
<g transform="translate(0.000000,500.000000) scale(0.100000,-0.100000)"
fill="#000000" stroke="none">
<path d="M1390 4165 c0 -8 0 -17 0 -20 0 -3 -6 -24 -14 -47 -7 -24 -12 -51
-10 -62 1 -10 -2 -30 -7 -45 -10 -26 -12 -36 -24 -116 -10 -70 -13 -76 -43
-69 -15 4 -33 11 -39 17 -7 5 -13 6 -13 2 0 -4 -7 -2 -15 5 -8 7 -15 10 -15 7
0 -3 -32 5 -71 19 -65 23 -84 24 -84 6 0 -4 -6 -29 -13 -57 -31 -117 -42 -162
-47 -192 -3 -18 -9 -43 -15 -57 -8 -23 -13 -24 -59 -19 -42 4 -51 2 -52 -11
-2 -19 -1 -18 -19 -76 -7 -25 -16 -61 -21 -80 -8 -39 -9 -44 -39 -155 -12 -44
-24 -91 -26 -105 -5 -26 -27 -104 -50 -179 -8 -25 -14 -52 -14 -60 0 -8 -9
-45 -19 -81 -11 -36 -27 -94 -36 -130 -9 -36 -23 -88 -32 -116 -8 -28 -17 -64
-18 -80 -2 -16 -11 -50 -19 -76 -8 -27 -12 -48 -9 -48 3 0 0 -7 -7 -15 -7 -8
-10 -15 -6 -15 3 0 -1 -17 -9 -37 -8 -21 -16 -52 -18 -68 -3 -17 -12 -55 -20
-85 -9 -30 -22 -80 -30 -110 -8 -30 -22 -82 -31 -115 -9 -33 -18 -71 -20 -85
-2 -14 -9 -38 -15 -53 -6 -15 -13 -42 -16 -60 -3 -18 -12 -52 -20 -77 -8 -25
-16 -56 -19 -70 -3 -14 -8 -36 -11 -50 -4 -14 -11 -41 -15 -60 -5 -19 -21 -78
-35 -130 -14 -52 -28 -106 -31 -120 -3 -14 -12 -46 -20 -72 -9 -26 -17 -64
-20 -84 -2 -20 -9 -44 -14 -54 -5 -9 -12 -31 -15 -49 -7 -38 10 -47 57 -32 18
5 47 12 63 15 17 2 46 10 65 16 19 7 42 13 50 14 52 9 96 19 105 25 6 3 19 6
30 7 11 0 47 8 80 16 104 27 159 39 200 44 22 3 47 8 55 11 28 11 89 23 190
38 19 2 46 7 60 10 14 3 50 8 80 11 30 3 71 7 90 10 71 10 367 12 440 3 103
-14 281 -49 304 -61 10 -6 33 -12 50 -15 17 -3 45 -11 61 -18 17 -7 63 -23
103 -36 39 -13 72 -27 72 -32 0 -4 4 -6 9 -3 4 3 16 -1 26 -8 14 -10 19 -29
20 -77 2 -35 3 -70 4 -76 2 -22 25 -14 54 20 l28 32 37 -43 c20 -23 40 -42 43
-42 4 0 7 39 8 87 1 49 5 91 9 95 7 6 164 68 185 72 7 2 25 8 40 14 16 7 34
12 41 12 7 0 39 9 72 19 250 80 566 88 964 26 58 -9 121 -20 140 -25 19 -5 51
-12 70 -15 19 -3 62 -12 95 -19 33 -8 96 -22 140 -31 44 -10 101 -24 127 -31
26 -8 62 -16 80 -18 18 -3 47 -10 63 -16 17 -6 50 -16 75 -21 80 -17 93 -20
102 -25 14 -9 9 28 -17 121 -14 50 -28 106 -31 125 -3 19 -10 42 -15 51 -4 9
-11 31 -14 50 -2 19 -12 57 -20 84 -8 28 -23 86 -34 130 -11 44 -33 130 -49
190 -16 61 -32 121 -35 135 -3 14 -15 61 -27 105 -42 154 -61 230 -71 280 -6
27 -15 57 -20 67 -8 14 -34 117 -43 168 -1 8 -11 42 -20 75 -18 59 -22 75 -32
124 -3 13 -9 32 -14 41 -5 10 -7 19 -5 22 3 3 -4 36 -15 74 -43 143 -50 171
-50 185 0 7 -9 43 -19 79 -23 79 -41 147 -47 173 -2 11 -11 44 -19 75 -9 30
-18 66 -20 81 -2 14 -10 45 -18 68 -9 22 -14 43 -11 45 2 2 -5 26 -15 54 -19
49 -19 49 -64 49 -51 0 -62 7 -62 38 -1 12 -4 28 -9 35 -4 7 -5 16 -2 19 3 3
2 11 -3 17 -5 6 -12 27 -15 46 -3 19 -12 58 -21 85 -8 28 -15 60 -15 71 0 12
-6 24 -14 27 -7 3 -66 -12 -131 -34 -65 -22 -119 -38 -120 -37 -4 5 -34 142
-39 178 -3 19 -11 63 -19 97 -7 34 -13 71 -12 82 2 28 -16 26 -51 -4 -16 -14
-33 -25 -37 -25 -5 0 -15 -6 -22 -12 -33 -30 -45 -38 -55 -38 -5 0 -10 -4 -10
-8 0 -5 -16 -17 -35 -28 -19 -10 -35 -22 -35 -26 0 -5 -6 -8 -14 -8 -8 0 -16
-3 -18 -7 -1 -5 -30 -28 -63 -53 -33 -24 -65 -49 -72 -55 -7 -5 -20 -17 -30
-25 -9 -8 -33 -28 -53 -43 -70 -56 -212 -200 -270 -274 -8 -10 -31 -39 -51
-63 -66 -83 -210 -305 -230 -352 -6 -16 -15 -28 -19 -28 -4 0 -13 -13 -19 -30
-13 -39 -22 -38 -46 8 -11 20 -22 39 -26 42 -3 3 -16 25 -30 50 -13 25 -29 50
-36 55 -7 6 -17 21 -23 35 -14 35 -33 64 -75 116 -14 18 -25 35 -25 39 0 6
-59 82 -95 121 -5 6 -23 28 -39 48 -25 32 -63 71 -210 212 -12 12 -67 55 -122
97 -54 42 -110 86 -124 99 -13 13 -27 22 -30 21 -3 -1 -14 5 -25 15 -11 9 -46
34 -77 55 -32 21 -58 43 -58 49 0 6 -3 8 -6 5 -4 -4 -19 2 -34 13 -34 24 -40
25 -40 5z"/>
</g>
</svg>
